<?xml version="1.0" encoding="UTF-8" standalone="no"?><svg xmlns="http://www.w3.org/2000/svg" xmlns:xlink="http://www.w3.org/1999/xlink" width="20px" height="20px" viewBox="0 0 20 20" version="1.1"><title>patreon [#141]</title><g id="Page-1" stroke="none" stroke-width="1" fill="none" fill-rule="evenodd"><g id="Dribbble-Light-Preview" transform="translate(-180.000000, -7559.000000)" fill="#000"><g id="icons" transform="translate(56.000000, 160.000000)"><path d="M124 7408.71c0-8.08 10.32-13.186 16.916-6.892 3.532 3.36 4.143 8.902 1.248 12.951-3.591 4.92-8.282 4.193-12.76 4.193v-9.588c.041-2.117.747-3.943 3.324-4.816 2.245-.664 4.863.581 5.653 2.947.832 2.533-.374 4.234-1.787 5.272-1.413 1.039-3.616 1.039-5.07.042v3.279c3.138 1.5 8.105-.303 9.684-4.4 1.08-2.864.332-6.185-1.912-8.26-2.701-2.2-5.653-2.74-8.811-1.204-2.204 1.12-3.741 3.404-4.116 5.894v10.834h-2.327L124 7408.71z" id="patreon-[#141]"/></g></g></g><metadata><rdf:RDF xmlns:rdf="http://www.w3.org/1999/02/22-rdf-syntax-ns#" xmlns:rdfs="http://www.w3.org/2000/01/rdf-schema#" xmlns:dc="http://purl.org/dc/elements/1.1/"><rdf:Description about="https://iconscout.com/legal#licenses" dc:title="patreon" dc:description="patreon" dc:publisher="Iconscout" dc:date="2017-09-15" dc:format="image/svg+xml" dc:language="en"><dc:creator><rdf:Bag><rdf:li>Alexandru Stoica</rdf:li></rdf:Bag></dc:creator></rdf:Description></rdf:RDF></metadata></svg>